<svg width="9" height="15" viewBox="0 0 9 15" fill="none" xmlns="http://www.w3.org/2000/svg">
<path d="M0.781677 14.8975C0.674255 14.8975 0.571716 14.8755 0.47406 14.8315C0.376404 14.7876 0.298279 14.7363 0.239685 14.6777C0.0834351 14.5215 0.00531006 14.3262 0.00531006 14.0918C0.00531006 13.8574 0.0834351 13.6621 0.239685 13.5059L6.14301 7.60254L0.239685 1.61133C0.0834351 1.44531 0.00531006 1.24756 0.00531006 1.01807C0.00531006 0.788574 0.0834351 0.59082 0.239685 0.424805C0.405701 0.268555 0.603455 0.19043 0.832947 0.19043C1.06244 0.19043 1.26019 0.268555 1.42621 0.424805L7.95941 6.95801C8.11566 7.12402 8.19379 7.32178 8.19379 7.55127C8.19379 7.78076 8.11566 7.97852 7.95941 8.14453L1.42621 14.6777C1.31879 14.7363 1.21136 14.7876 1.10394 14.8315C0.996521 14.8755 0.889099 14.8975 0.781677 14.8975Z" fill="#B5B5BA"/>
</svg>
