<svg width="22" height="12" viewBox="0 0 22 12" fill="none" xmlns="http://www.w3.org/2000/svg">
<path d="M21.2812 12C21.1953 12 21.1113 11.9824 21.0293 11.9473C20.9473 11.9121 20.8867 11.875 20.8477 11.8359L10.9922 1.98047L1.13672 11.7422C1.00391 11.875 0.845703 11.9414 0.662109 11.9414C0.478516 11.9414 0.320312 11.875 0.1875 11.7422C0.0625 11.6172 0 11.4609 0 11.2734C0 11.0859 0.0625 10.9297 0.1875 10.8047L10.4766 0.515625C10.6016 0.390625 10.7578 0.328125 10.9453 0.328125C11.1328 0.328125 11.2891 0.390625 11.4141 0.515625L21.7031 10.8047C21.8359 10.9297 21.9023 11.0859 21.9023 11.2734C21.9023 11.4609 21.8359 11.6172 21.7031 11.7422C21.6641 11.8281 21.6055 11.8926 21.5273 11.9355C21.4492 11.9785 21.3672 12 21.2812 12Z" fill="white" fill-opacity="0.7"/>
</svg>
